<?xml version="1.0" encoding="utf-8"?>
<svg xmlns="http://www.w3.org/2000/svg" width="39.033" height="38.521" viewBox="0 0 39.033 38.521">
    <path id="Path_682" data-name="Path 682" d="M1728.319,39.618a19.64,19.64,0,0,1,27.617,0,18.431,18.431,0,0,1,5.708,13.6,18.429,18.429,0,0,1-5.708,13.6,19.724,19.724,0,0,1-27.617,0,18.425,18.425,0,0,1-5.708-13.6A18.427,18.427,0,0,1,1728.319,39.618Zm18.081,2.29h-.992a15.417,15.417,0,0,0-3.759.342,3.628,3.628,0,0,0-2.427,1.777,5.627,5.627,0,0,0-.479,2.53q-.069,2.735-.1,3.11h-2.495V53.8h2.6V65.731h5.127a.031.031,0,0,0,.035-.034v-7.28q0-2.734.1-4.614l3.384-.034q.137-.924.239-1.949.1-.99.137-2.119a.031.031,0,0,0-.034-.034h-1.5c-.41.023-.707.034-.889.034a8.11,8.11,0,0,1-1.435-.1,2.807,2.807,0,0,0,.034-.445c0-.159-.012-.4-.034-.718s-.035-.558-.035-.717a3.035,3.035,0,0,1,.069-.718,1.237,1.237,0,0,1,.239-.581,4.049,4.049,0,0,1,.615-.171,7.19,7.19,0,0,1,.752-.034c.182,0,.456.012.82.034h1.368a.03.03,0,0,0,.034-.034V41.942Z" transform="translate(-1722.611 -33.944)"/>
</svg>
