<?xml version="1.0" encoding="utf-8"?>
<svg xmlns="http://www.w3.org/2000/svg" xmlns:xlink="http://www.w3.org/1999/xlink" width="200" height="114.73" viewBox="0 0 200 114.73">
    <defs>
        <clipPath id="clip-path">
        <rect id="Rectangle_115" data-name="Rectangle 115" width="200" height="114.73" fill="none"/>
        </clipPath>
    </defs>
    <g id="Group_116" data-name="Group 116" transform="translate(-1450.054 -5121.047)">
        <g id="Group_115" data-name="Group 115" transform="translate(1450.054 5121.047)" >
        <path id="Path_572" data-name="Path 572" d="M1576.872,5188.144a.574.574,0,0,1-.534-.534v-25.6a.574.574,0,0,1,.534-.532H1588.6c6.622,0,11.288,4.132,11.288,10.31,0,6.312-4.889,10.088-11.288,10.088h-4.266v5.733a.573.573,0,0,1-.533.534Zm7.466-19.91v7.333h3.466c2.489,0,4.045-1.467,4.045-3.645s-1.51-3.689-4.045-3.689Z" transform="translate(-1567.635 -5127.109)" fill="#fff"/>
        <path id="Rectangle_114" data-name="Rectangle 114" d="M.627,0H7.373A.627.627,0,0,1,8,.627V26.038a.628.628,0,0,1-.628.628H.628A.628.628,0,0,1,0,26.038V.627A.627.627,0,0,1,.627,0Z" transform="translate(35.818 34.369)" fill="#fff"/>
        <path id="Path_573" data-name="Path 573" d="M1643.3,5172.645c-.4,0-.622-.224-.756-.712-.622-2.578-2.622-4.222-5.778-4.222-3.511,0-6.578,2.577-6.578,7.021,0,4.356,2.978,7.022,6.578,7.022,3.067,0,5.067-1.467,5.778-3.911a.8.8,0,0,1,.889-.712h6.355c.355,0,.8.178.8.623,0,5.378-4.934,10.756-13.822,10.756-8.178,0-14.577-5.735-14.577-13.778,0-7.91,6.4-13.777,14.577-13.777,8.444,0,13.822,5.2,13.822,10.978a.713.713,0,0,1-.756.712Z" transform="translate(-1574.509 -5127.03)" fill="#fff"/>
        <path id="Path_574" data-name="Path 574" d="M1656.593,5168.233a.755.755,0,0,1-.622-.622V5162.1a.755.755,0,0,1,.622-.622h25.6a.755.755,0,0,1,.622.622v5.512a.755.755,0,0,1-.622.622h-8.8v19.376a.574.574,0,0,1-.534.534h-6.934a.573.573,0,0,1-.532-.534v-19.376Z" transform="translate(-1579.573 -5127.109)" fill="#fff"/>
        <path id="Path_575" data-name="Path 575" d="M1716.521,5174.732c0,8.622-6.889,13.778-14.977,13.778s-14.978-5.156-14.978-13.778,6.888-13.777,14.978-13.777,14.977,5.156,14.977,13.777m-21.955,0a6.978,6.978,0,1,0,6.978-7.022,6.78,6.78,0,0,0-6.978,7.022" transform="translate(-1584.16 -5127.03)" fill="#fff"/>
        <path id="Path_576" data-name="Path 576" d="M1744.519,5162.012a.574.574,0,0,1,.533-.534h6.933a.574.574,0,0,1,.533.534v13.109c0,8.622-5.288,13.468-14.044,13.468-8.711,0-14.042-4.846-14.042-13.468v-13.109a.573.573,0,0,1,.533-.534h6.933a.573.573,0,0,1,.532.534v12.978c0,4.577,2.311,6.887,6.044,6.887,3.823,0,6.045-2.31,6.045-6.887Z" transform="translate(-1589.836 -5127.109)" fill="#fff"/>
        <path id="Path_577" data-name="Path 577" d="M1594.614,5212c-.4,0-.622-.222-.756-.711-.622-2.578-2.622-4.222-5.777-4.222-3.511,0-6.578,2.578-6.578,7.023,0,4.354,2.978,7.021,6.578,7.021,3.067,0,5.067-1.466,5.777-3.911a.8.8,0,0,1,.889-.711h6.355c.355,0,.8.177.8.622,0,5.376-4.934,10.754-13.822,10.754-8.179,0-14.578-5.733-14.578-13.776,0-7.913,6.4-13.779,14.578-13.779,8.444,0,13.822,5.2,13.822,10.978a.712.712,0,0,1-.756.711Z" transform="translate(-1567.21 -5132.931)" fill="#fff"/>
        <path id="Path_578" data-name="Path 578" d="M1640,5214.093c0,8.621-6.888,13.777-14.976,13.777s-14.978-5.156-14.978-13.777,6.887-13.777,14.978-13.777,14.976,5.155,14.976,13.777m-21.953,0a6.977,6.977,0,1,0,6.977-7.022,6.78,6.78,0,0,0-6.977,7.022" transform="translate(-1572.689 -5132.932)" fill="#fff"/>
        <path id="Path_579" data-name="Path 579" d="M1669.663,5201.371a.573.573,0,0,1,.534-.534h6.933a.574.574,0,0,1,.533.534v13.11c0,8.622-5.29,13.467-14.044,13.467-8.711,0-14.044-4.845-14.044-13.467v-13.11a.575.575,0,0,1,.535-.534h6.932a.575.575,0,0,1,.534.534v12.978c0,4.578,2.31,6.887,6.044,6.887,3.822,0,6.044-2.309,6.044-6.887Z" transform="translate(-1578.614 -5133.009)" fill="#fff"/>
        <path id="Path_580" data-name="Path 580" d="M1699.162,5216.17c-1.245-1.244-2.667-3.022-2.667-3.022h-.178v13.822a.573.573,0,0,1-.534.533h-6.933a.574.574,0,0,1-.533-.533v-25.6a.574.574,0,0,1,.533-.535h6l11.421,11.555a35.807,35.807,0,0,1,2.446,2.755h.133v-13.776a.574.574,0,0,1,.533-.535h6.933a.573.573,0,0,1,.532.535v25.6a.573.573,0,0,1-.532.533h-6Z" transform="translate(-1584.422 -5133.009)" fill="#fff"/>
        <path id="Path_581" data-name="Path 581" d="M1726.165,5207.593a.756.756,0,0,1-.622-.622v-5.511a.756.756,0,0,1,.622-.623h25.6a.755.755,0,0,1,.621.623v5.511a.755.755,0,0,1-.621.622h-8.8v19.377a.574.574,0,0,1-.534.534H1735.5a.573.573,0,0,1-.534-.534v-19.377Z" transform="translate(-1590.003 -5133.009)" fill="#fff"/>
        <path id="Path_582" data-name="Path 582" d="M1777.158,5226.971a.573.573,0,0,1-.534.532h-6.933a.572.572,0,0,1-.532-.532v-9.688l-10.089-15.689c-.179-.266-.223-.355-.223-.49a.257.257,0,0,1,.267-.266h8.089a1.012,1.012,0,0,1,1.065.534l3.557,5.866a20.713,20.713,0,0,1,1.244,2.4h.178a16.865,16.865,0,0,1,1.245-2.4l3.555-5.866a1.015,1.015,0,0,1,1.067-.534h8.044a.3.3,0,0,1,.311.266c0,.179-.089.268-.222.49l-10.089,15.689Z" transform="translate(-1594.996 -5133.009)" fill="#fff"/>
        <path id="Path_583" data-name="Path 583" d="M1746.95,5247.988a.307.307,0,0,0-.266-.2.313.313,0,0,0-.173.055,1.953,1.953,0,0,1-.861.31c-.574-.025-.845-.108-.87-1v-2.584h1.819a.337.337,0,0,0,.308-.308v-.681a.336.336,0,0,0-.308-.307h-1.819v-1.209a.416.416,0,0,0-.349-.35h-.764a.419.419,0,0,0-.351.35v1.209h-.656a.336.336,0,0,0-.308.307v.681a.338.338,0,0,0,.308.308h.656v2.584a2.025,2.025,0,0,0,2.236,2.291,3.054,3.054,0,0,0,1.473-.44.366.366,0,0,0,.236-.321.434.434,0,0,0-.069-.232Z" transform="translate(-1592.523 -5139.139)" fill="#fff"/>
        <path id="Path_584" data-name="Path 584" d="M1736.96,5243.389a3.106,3.106,0,0,0-3.326,3.156,3.17,3.17,0,0,0,3.439,3.156,3.732,3.732,0,0,0,2.712-1.022.492.492,0,0,0,.2-.375.4.4,0,0,0-.132-.305l-.3-.284a.357.357,0,0,0-.3-.13.419.419,0,0,0-.347.173,2.489,2.489,0,0,1-1.836.648,1.828,1.828,0,0,1-1.92-1.4h4.88l.01-.1a7.075,7.075,0,0,0,.043-.735,2.682,2.682,0,0,0-.776-1.959,3.254,3.254,0,0,0-2.351-.829m0,1.295c.975.012,1.514.366,1.629,1.171h-3.4a1.658,1.658,0,0,1,1.771-1.171" transform="translate(-1591.216 -5139.388)" fill="#fff"/>
        <path id="Path_585" data-name="Path 585" d="M1600.874,5243.389a1.57,1.57,0,0,0-1.321.582,2.706,2.706,0,0,0-1.754-.582,2.414,2.414,0,0,0-2.166,3.733,1.871,1.871,0,0,0-.594,1.308,1.518,1.518,0,0,0,.669,1.33,2.058,2.058,0,0,0-.613,1.42c0,1.118,1.125,2.063,2.916,2.065h.057c2.139,0,3.025-1.212,3.03-2.349,0-1.067-.848-2.035-2.492-2.037h-1.545c-.479-.011-.695-.152-.7-.457a.836.836,0,0,1,.207-.506,2.953,2.953,0,0,0,1.229.246,2.352,2.352,0,0,0,2.56-2.376,2.582,2.582,0,0,0-.127-.768.725.725,0,0,1,.485-.172c.135,0,.163.014.242.015a.277.277,0,0,0,.264-.252v-.949c0-.167-.167-.251-.35-.251m-3.075,1.295a1.09,1.09,0,0,1,1.236,1.082c-.006.6-.406,1.072-1.236,1.082-.832-.009-1.231-.485-1.239-1.082a1.092,1.092,0,0,1,1.239-1.082m-.782,5.442h1.589c.818.01,1.014.434,1.024.814,0,.506-.43,1-1.534,1.01h-.156c-.876,0-1.377-.428-1.38-.941a1.108,1.108,0,0,1,.457-.883" transform="translate(-1570.438 -5139.388)" fill="#fff"/>
        <path id="Path_586" data-name="Path 586" d="M1763.491,5243.389a3.159,3.159,0,1,0,3.3,3.156,3.059,3.059,0,0,0-3.3-3.156m0,5.017a1.861,1.861,0,0,1,0-3.722,1.861,1.861,0,0,1,0,3.722" transform="translate(-1595.198 -5139.388)" fill="#fff"/>
        <path id="Path_587" data-name="Path 587" d="M1772.9,5243.389a2.487,2.487,0,0,0-1.868.873l-.016.019-.153-.437c-.051-.142-.14-.3-.329-.314h-.581a.42.42,0,0,0-.351.35v5.33a.418.418,0,0,0,.351.349h.764a.417.417,0,0,0,.35-.349v-3.28a1.8,1.8,0,0,1,1.578-1.246c.468.01.757.281.769.94v.058a.42.42,0,0,0,.351.349h.764a.417.417,0,0,0,.349-.349v-.143a2.3,2.3,0,0,0-.5-1.6,1.915,1.915,0,0,0-1.479-.55" transform="translate(-1596.609 -5139.388)" fill="#fff"/>
        <path id="Path_588" data-name="Path 588" d="M1589.363,5243.389a3.107,3.107,0,0,0-3.326,3.156,3.17,3.17,0,0,0,3.44,3.156,3.739,3.739,0,0,0,2.714-1.022.5.5,0,0,0,.2-.375.4.4,0,0,0-.131-.305l-.3-.284a.36.36,0,0,0-.3-.13.423.423,0,0,0-.347.173,2.486,2.486,0,0,1-1.836.648,1.828,1.828,0,0,1-1.92-1.4h4.88l.012-.1a7.075,7.075,0,0,0,.043-.735,2.683,2.683,0,0,0-.778-1.959,3.253,3.253,0,0,0-2.35-.829m0,1.295c.975.012,1.514.366,1.629,1.171h-3.4a1.658,1.658,0,0,1,1.772-1.171" transform="translate(-1569.089 -5139.388)" fill="#fff"/>
        <path id="Path_589" data-name="Path 589" d="M1780.481,5245.556l2.32-2.152a.336.336,0,0,0,.1-.235.253.253,0,0,0-.264-.237h-1.007a.757.757,0,0,0-.6.273l-2.521,2.364-.009.011-.147.179v-6.021a.419.419,0,0,0-.349-.351h-.766a.423.423,0,0,0-.35.351v8.873a.421.421,0,0,0,.35.35h.766a.418.418,0,0,0,.349-.35v-1.058l1.088-1.023,1.811,2.1a.8.8,0,0,0,.72.335h.822a.407.407,0,0,0,.223-.048.215.215,0,0,0,.1-.189.321.321,0,0,0-.094-.21Z" transform="translate(-1597.701 -5138.789)" fill="#fff"/>
        <path id="Path_590" data-name="Path 590" d="M1604.8,5243.556h-.764a.422.422,0,0,0-.352.35v5.329a.421.421,0,0,0,.352.349h.764a.418.418,0,0,0,.351-.349v-5.329a.419.419,0,0,0-.351-.35" transform="translate(-1571.734 -5139.414)" fill="#fff"/>
        <path id="Path_591" data-name="Path 591" d="M1604.39,5240.223a.874.874,0,1,0,.875.874.871.871,0,0,0-.875-.874" transform="translate(-1571.709 -5138.914)" fill="#fff"/>
        <path id="Path_592" data-name="Path 592" d="M1757.762,5243.556h-.88a.347.347,0,0,0-.382.261l-1.263,2.85a2.239,2.239,0,0,0-.105.358,2.913,2.913,0,0,0-.1-.313l-1.347-3.156h-.7l-1.346,3.156a2.792,2.792,0,0,0-.1.313,2.088,2.088,0,0,0-.105-.358l-1.262-2.848-.1.044.1-.046a.349.349,0,0,0-.383-.261h-.878a.221.221,0,0,0-.223.207.424.424,0,0,0,.039.177l2.479,5.644h.626l1.346-3.17a4.268,4.268,0,0,0,.162-.464,4.362,4.362,0,0,0,.161.465l1.346,3.169h.626l2.481-5.648a.432.432,0,0,0,.037-.172.221.221,0,0,0-.221-.207" transform="translate(-1593.472 -5139.413)" fill="#fff"/>
        <path id="Path_593" data-name="Path 593" d="M1582.129,5246.429a4.485,4.485,0,0,0-.44-.519,2.645,2.645,0,0,0,2.1-2.62c0-1.872-1.538-2.9-3.567-2.9H1576.6a.289.289,0,0,0-.281.279v8.163a.289.289,0,0,0,.281.279h.906a.287.287,0,0,0,.279-.279v-2.725h2.344l2.065,2.858a.375.375,0,0,0,.287.146h1.162a.236.236,0,0,0,.156-.046.179.179,0,0,0,.066-.147.448.448,0,0,0-.121-.251Zm.2-3.139c0,1.027-.851,1.583-2.13,1.591h-2.413v-3.2h2.413c1.293.011,2.128.562,2.13,1.606" transform="translate(-1567.632 -5138.939)" fill="#fff"/>
        <path id="Path_594" data-name="Path 594" d="M1684.731,5243.389a2.654,2.654,0,0,0-1.906.655l-.065.066-.14-.3a.4.4,0,0,0-.34-.275h-.581a.418.418,0,0,0-.351.349v8.874a.42.42,0,0,0,.351.349h.764a.419.419,0,0,0,.35-.349v-3.6l.037.028a2.683,2.683,0,0,0,1.725.519,2.933,2.933,0,0,0,3.015-3.157,2.871,2.871,0,0,0-2.859-3.156m-1.918,2.541a1.818,1.818,0,0,1,1.762-1.245c.883,0,1.542.7,1.549,1.86a1.661,1.661,0,0,1-1.62,1.86,2.317,2.317,0,0,1-1.691-.606Z" transform="translate(-1583.378 -5139.388)" fill="#fff"/>
        <path id="Path_595" data-name="Path 595" d="M1668.3,5243.389a3.106,3.106,0,0,0-3.326,3.156,3.169,3.169,0,0,0,3.439,3.156,3.737,3.737,0,0,0,2.714-1.022.5.5,0,0,0,.2-.375.4.4,0,0,0-.131-.305l-.3-.284a.36.36,0,0,0-.3-.13.42.42,0,0,0-.347.173,2.486,2.486,0,0,1-1.836.648,1.828,1.828,0,0,1-1.92-1.4h4.881l.011-.1a7.075,7.075,0,0,0,.043-.735,2.686,2.686,0,0,0-.777-1.959,3.255,3.255,0,0,0-2.351-.829m0,1.295c.975.012,1.514.366,1.629,1.171h-3.4a1.658,1.658,0,0,1,1.772-1.171" transform="translate(-1580.922 -5139.388)" fill="#fff"/>
        <path id="Path_596" data-name="Path 596" d="M1704.319,5245.94l-1.361-.141c-.586-.074-.625-.188-.638-.4.005-.3.228-.7,1.266-.714.945.007,1.2.214,1.252.521a.385.385,0,0,0,.377.344h.822a.28.28,0,0,0,.279-.279,1.625,1.625,0,0,0-.636-1.323,3.346,3.346,0,0,0-2.095-.559c-1.812,0-2.729,1.043-2.731,2.009-.015.927.533,1.541,2,1.667l1.389.142c.763.1.891.255.893.488-.008.34-.222.7-1.266.712-1.247-.01-1.574-.284-1.576-.684a.313.313,0,0,0-.092-.246.353.353,0,0,0-.245-.077h-.766a.352.352,0,0,0-.246.083.317.317,0,0,0-.089.24,1.673,1.673,0,0,0,.751,1.456,4.031,4.031,0,0,0,2.263.523c2,0,2.729-1.113,2.731-2.022s-.48-1.571-2.28-1.738" transform="translate(-1586.302 -5139.388)" fill="#fff"/>
        <path id="Path_597" data-name="Path 597" d="M1677.438,5243.389a2.485,2.485,0,0,0-1.869.873l-.016.019-.153-.437c-.051-.142-.138-.3-.329-.314h-.581a.42.42,0,0,0-.351.35v5.33a.418.418,0,0,0,.351.349h.764a.418.418,0,0,0,.35-.349v-3.28a1.8,1.8,0,0,1,1.578-1.246c.468.01.757.281.769.94v.058a.422.422,0,0,0,.35.349h.766a.418.418,0,0,0,.349-.349v-.143a2.3,2.3,0,0,0-.5-1.6,1.916,1.916,0,0,0-1.478-.55" transform="translate(-1582.297 -5139.388)" fill="#fff"/>
        <path id="Path_598" data-name="Path 598" d="M1663.052,5247.988a.307.307,0,0,0-.267-.2.324.324,0,0,0-.173.055,1.947,1.947,0,0,1-.862.31c-.573-.025-.844-.108-.87-1v-2.584h1.818a.337.337,0,0,0,.309-.308v-.681a.337.337,0,0,0-.309-.307h-1.818v-1.209a.417.417,0,0,0-.349-.35h-.765a.42.42,0,0,0-.351.35v1.208h-.655a.336.336,0,0,0-.309.307v.681a.337.337,0,0,0,.309.308h.655v2.584a2.025,2.025,0,0,0,2.237,2.291,3.054,3.054,0,0,0,1.473-.44.368.368,0,0,0,.237-.321.451.451,0,0,0-.069-.232Z" transform="translate(-1579.945 -5139.139)" fill="#fff"/>
        <path id="Path_599" data-name="Path 599" d="M1693.336,5243.389a2.485,2.485,0,0,0-1.869.873l-.016.019-.153-.437c-.051-.142-.14-.3-.329-.314h-.581a.42.42,0,0,0-.351.35v5.33a.418.418,0,0,0,.351.349h.764a.417.417,0,0,0,.35-.349v-3.28a1.8,1.8,0,0,1,1.578-1.246c.467.01.758.281.769.94v.058a.418.418,0,0,0,.349.349h.766a.417.417,0,0,0,.349-.349v-.143a2.3,2.3,0,0,0-.5-1.6,1.916,1.916,0,0,0-1.478-.55" transform="translate(-1584.68 -5139.388)" fill="#fff"/>
        <path id="Path_600" data-name="Path 600" d="M1698.032,5240.223a.874.874,0,1,0,.874.874.871.871,0,0,0-.874-.874" transform="translate(-1585.748 -5138.914)" fill="#fff"/>
        <path id="Path_601" data-name="Path 601" d="M1698.439,5243.556h-.765a.421.421,0,0,0-.351.35v5.329a.42.42,0,0,0,.351.349h.765a.42.42,0,0,0,.351-.349v-5.329a.421.421,0,0,0-.351-.35" transform="translate(-1585.772 -5139.414)" fill="#fff"/>
        <path id="Path_602" data-name="Path 602" d="M1712.349,5243.389a3.106,3.106,0,0,0-3.326,3.156,3.17,3.17,0,0,0,3.439,3.156,3.732,3.732,0,0,0,2.712-1.022.489.489,0,0,0,.2-.375.4.4,0,0,0-.131-.305l-.3-.284a.359.359,0,0,0-.3-.13.419.419,0,0,0-.347.173,2.489,2.489,0,0,1-1.836.648,1.828,1.828,0,0,1-1.92-1.4h4.88l.01-.1a7.055,7.055,0,0,0,.043-.735,2.685,2.685,0,0,0-.776-1.959,3.255,3.255,0,0,0-2.351-.829m0,1.295c.975.012,1.514.366,1.629,1.171h-3.4a1.657,1.657,0,0,1,1.771-1.171" transform="translate(-1587.527 -5139.388)" fill="#fff"/>
        <path id="Path_603" data-name="Path 603" d="M1730.593,5240.389h-.908a.289.289,0,0,0-.279.278v6.053a5.173,5.173,0,0,0-.507-.6l-5.6-5.729h-.727a.288.288,0,0,0-.279.278v8.164a.286.286,0,0,0,.279.278h.908a.286.286,0,0,0,.279-.278v-6.062a4.909,4.909,0,0,0,.393.469l5.73,5.871h.712a.285.285,0,0,0,.279-.278v-8.164a.288.288,0,0,0-.279-.278" transform="translate(-1589.516 -5138.939)" fill="#fff"/>
        <path id="Path_604" data-name="Path 604" d="M1627.308,5243.389a3.315,3.315,0,0,0-2.08.551,1.733,1.733,0,0,0-.651,1.431v.041a.417.417,0,0,0,.35.35h.766c.1-.016.305-.008.349-.235v-.043c.013-.544.283-.779,1.267-.8,1.375.024,1.6.479,1.62,1.281v.115l-2.032,0a3.128,3.128,0,0,0-1.948.509,1.518,1.518,0,0,0-.583,1.244c0,1.038.78,1.865,2.3,1.866a3.544,3.544,0,0,0,2.18-.661l.133-.105.138.317h0a.445.445,0,0,0,.326.308h.6a.421.421,0,0,0,.351-.351v-3.1a2.643,2.643,0,0,0-.7-1.94,3.267,3.267,0,0,0-2.389-.776m-.411,3.846h2.032v.46a3.918,3.918,0,0,1-2.259.712c-.614-.012-.833-.229-.841-.571.013-.292.138-.583,1.068-.6" transform="translate(-1574.835 -5139.388)" fill="#fff"/>
        <path id="Path_605" data-name="Path 605" d="M1647.579,5247.814H1642.3v-2.56h4.709a.336.336,0,0,0,.307-.308v-.68a.332.332,0,0,0-.307-.307H1642.3v-2.277h5.135a.337.337,0,0,0,.307-.308v-.681a.338.338,0,0,0-.307-.307h-6.322a.287.287,0,0,0-.279.28v8.162a.286.286,0,0,0,.279.278h6.463a.333.333,0,0,0,.307-.307v-.681a.336.336,0,0,0-.307-.308" transform="translate(-1577.304 -5138.939)" fill="#fff"/>
        <path id="Path_606" data-name="Path 606" d="M1634.232,5239.389h-.766a.417.417,0,0,0-.349.35v8.872a.418.418,0,0,0,.349.35h.766a.418.418,0,0,0,.349-.35v-8.872a.416.416,0,0,0-.349-.35" transform="translate(-1576.147 -5138.789)" fill="#fff"/>
        <path id="Path_607" data-name="Path 607" d="M1653.98,5243.389a2.718,2.718,0,0,0-2.028.875l-.151-.42c-.052-.142-.14-.3-.33-.313h-.58a.418.418,0,0,0-.351.35v5.33a.416.416,0,0,0,.351.349h.764a.418.418,0,0,0,.35-.349v-3.28a1.967,1.967,0,0,1,1.9-1.246,1,1,0,0,1,1.125,1.082v3.444a.417.417,0,0,0,.35.349h.766a.417.417,0,0,0,.349-.349v-3.444a2.38,2.38,0,0,0-.6-1.732,2.594,2.594,0,0,0-1.92-.645" transform="translate(-1578.759 -5139.388)" fill="#fff"/>
        <path id="Path_608" data-name="Path 608" d="M1610.128,5243.389a3.159,3.159,0,1,0,3.3,3.156,3.057,3.057,0,0,0-3.3-3.156m0,5.017a1.861,1.861,0,0,1,0-3.722,1.861,1.861,0,0,1,0,3.722" transform="translate(-1572.206 -5139.388)" fill="#fff"/>
        <path id="Path_609" data-name="Path 609" d="M1619.377,5243.389a2.722,2.722,0,0,0-2.028.875l-.15-.42c-.053-.142-.14-.3-.33-.313h-.58a.418.418,0,0,0-.351.35v5.33a.417.417,0,0,0,.351.349h.764a.418.418,0,0,0,.35-.349v-3.28a1.966,1.966,0,0,1,1.9-1.246,1,1,0,0,1,1.124,1.082v3.444a.418.418,0,0,0,.351.349h.765a.416.416,0,0,0,.349-.349v-3.444a2.373,2.373,0,0,0-.6-1.732,2.6,2.6,0,0,0-1.92-.645" transform="translate(-1573.571 -5139.388)" fill="#fff"/>
        <path id="Path_610" data-name="Path 610" d="M1602.655,5145.929h.011c4.868-.476,13.368-2.783,18.161-11.634a10.917,10.917,0,0,0-1.634-2.157,22.545,22.545,0,0,1-16.538,13.792" transform="translate(-1571.58 -5122.709)" fill="#fff"/>
        <path id="Path_611" data-name="Path 611" d="M1622.039,5138.185a22.535,22.535,0,0,1-19.106,8.963c4.621.7,12.727.572,19.349-5.729.02-.265.03-.533.03-.8a10.987,10.987,0,0,0-.273-2.436" transform="translate(-1571.621 -5123.616)" fill="#fff"/>
        <path id="Path_612" data-name="Path 612" d="M1603.328,5148.806a25.619,25.619,0,0,0,15.358,1.217c.17-.15.338-.306.5-.469a10.814,10.814,0,0,0,2.151-3.048,26.393,26.393,0,0,1-18.009,2.3" transform="translate(-1571.681 -5124.864)" fill="#fff"/>
        <path id="Path_613" data-name="Path 613" d="M1610.734,5126.335a12.509,12.509,0,1,0,12.509,12.509,12.508,12.508,0,0,0-12.509-12.509m7.557,20.066a10.687,10.687,0,1,1,3.131-7.558,10.616,10.616,0,0,1-3.131,7.558" transform="translate(-1570.916 -5121.84)" fill="#fff"/>
        </g>
    </g>
</svg>
