<?xml version="1.0" encoding="utf-8"?>
<svg id="Group_182" data-name="Group 182" xmlns="http://www.w3.org/2000/svg" xmlns:xlink="http://www.w3.org/1999/xlink" width="147" height="71.413" viewBox="0 0 147 71.413">
    <defs>
        <clipPath id="clip-path">
        <rect id="Rectangle_132" data-name="Rectangle 132" width="147" height="71.413" fill="none"/>
        </clipPath>
    </defs>
    <g id="Group_181" data-name="Group 181" clip-path="url(#clip-path)">
        <path id="Path_643" data-name="Path 643" d="M3.274,56.424A.454.454,0,0,1,2.853,56V35.79a.454.454,0,0,1,.421-.421h9.264c5.229,0,8.913,3.264,8.913,8.141,0,4.983-3.86,7.966-8.913,7.966H9.169V56a.453.453,0,0,1-.421.421ZM9.169,40.7v5.79h2.737c1.965,0,3.193-1.158,3.193-2.878A2.864,2.864,0,0,0,11.906,40.7Z" transform="translate(-0.95 -11.781)" fill="#2aa3f4"/>
        <path id="Rectangle_131" data-name="Rectangle 131" d="M.631,0H5.685a.631.631,0,0,1,.631.631V20.423a.631.631,0,0,1-.631.631H.632A.632.632,0,0,1,0,20.422V.631A.631.631,0,0,1,.631,0Z" transform="translate(23.312 23.589)" fill="#2aa3f4"/>
        <path id="Path_644" data-name="Path 644" d="M65.667,44.072c-.316,0-.492-.175-.6-.562a4.289,4.289,0,0,0-4.561-3.333,5.167,5.167,0,0,0-5.194,5.544,5.167,5.167,0,0,0,5.194,5.544c2.421,0,4-1.158,4.561-3.088a.629.629,0,0,1,.7-.562h5.018c.281,0,.632.141.632.492,0,4.246-3.9,8.492-10.913,8.492C54.052,56.6,49,52.072,49,45.721c0-6.246,5.053-10.878,11.51-10.878,6.667,0,10.913,4.106,10.913,8.667a.563.563,0,0,1-.6.562Z" transform="translate(-16.321 -11.605)" fill="#2aa3f4"/>
        <path id="Path_645" data-name="Path 645" d="M83.488,40.7A.6.6,0,0,1,83,40.212V35.861a.6.6,0,0,1,.491-.492H103.7a.6.6,0,0,1,.492.492v4.352a.6.6,0,0,1-.492.491H96.752V56a.453.453,0,0,1-.421.421H90.857A.453.453,0,0,1,90.436,56V40.7Z" transform="translate(-27.645 -11.781)" fill="#2aa3f4"/>
        <path id="Path_646" data-name="Path 646" d="M137.439,45.722c0,6.807-5.439,10.878-11.825,10.878s-11.826-4.071-11.826-10.878,5.439-10.878,11.826-10.878,11.825,4.071,11.825,10.878m-17.335,0a5.509,5.509,0,1,0,5.509-5.545,5.353,5.353,0,0,0-5.509,5.545" transform="translate(-37.9 -11.606)" fill="#2aa3f4"/>
        <path id="Path_647" data-name="Path 647" d="M167.756,35.79a.453.453,0,0,1,.421-.421h5.474a.453.453,0,0,1,.421.421V46.142c0,6.808-4.176,10.633-11.088,10.633-6.878,0-11.088-3.825-11.088-10.633V35.79a.453.453,0,0,1,.421-.421h5.474a.453.453,0,0,1,.421.421V46.037c0,3.614,1.825,5.439,4.772,5.439,3.018,0,4.772-1.825,4.772-5.439Z" transform="translate(-50.593 -11.781)" fill="#2aa3f4"/>
        <path id="Path_648" data-name="Path 648" d="M16.668,83.684c-.316,0-.492-.175-.6-.562a4.289,4.289,0,0,0-4.561-3.333,5.556,5.556,0,0,0,0,11.088c2.421,0,4-1.158,4.561-3.088a.628.628,0,0,1,.7-.561h5.018c.281,0,.632.14.632.491,0,4.246-3.9,8.492-10.913,8.492C5.053,96.211,0,91.685,0,85.334c0-6.246,5.053-10.879,11.51-10.879,6.667,0,10.913,4.106,10.913,8.667a.562.562,0,0,1-.6.562Z" transform="translate(0 -24.799)" fill="#2aa3f4"/>
        <path id="Path_649" data-name="Path 649" d="M60.431,85.334c0,6.807-5.438,10.878-11.825,10.878S36.781,92.141,36.781,85.334,42.22,74.455,48.607,74.455s11.825,4.071,11.825,10.879m-17.334,0a5.509,5.509,0,1,0,5.509-5.545A5.353,5.353,0,0,0,43.1,85.334" transform="translate(-12.251 -24.799)" fill="#2aa3f4"/>
        <path id="Path_650" data-name="Path 650" d="M92.421,75.4a.453.453,0,0,1,.421-.421h5.474a.453.453,0,0,1,.421.421V85.755c0,6.808-4.176,10.633-11.088,10.633-6.878,0-11.088-3.825-11.088-10.633V75.4a.452.452,0,0,1,.421-.421h5.474a.453.453,0,0,1,.421.421V85.649c0,3.615,1.825,5.439,4.772,5.439,3.018,0,4.772-1.825,4.772-5.439Z" transform="translate(-25.501 -24.975)" fill="#2aa3f4"/>
        <path id="Path_651" data-name="Path 651" d="M124.113,87.088c-.983-.982-2.106-2.386-2.106-2.386h-.139V95.615a.453.453,0,0,1-.422.421h-5.473a.453.453,0,0,1-.421-.421V75.4a.452.452,0,0,1,.421-.421h4.737l9.018,9.123a28.374,28.374,0,0,1,1.931,2.176h.1V75.4a.453.453,0,0,1,.421-.421h5.474a.452.452,0,0,1,.421.421V95.615a.453.453,0,0,1-.421.421H132.92Z" transform="translate(-38.488 -24.975)" fill="#2aa3f4"/>
        <path id="Path_652" data-name="Path 652" d="M153.506,80.316a.6.6,0,0,1-.491-.492V75.474a.6.6,0,0,1,.491-.492h20.212a.6.6,0,0,1,.492.492v4.351a.6.6,0,0,1-.492.492H166.77v15.3a.453.453,0,0,1-.421.421h-5.474a.454.454,0,0,1-.422-.421v-15.3Z" transform="translate(-50.966 -24.975)" fill="#2aa3f4"/>
        <path id="Path_653" data-name="Path 653" d="M200.99,95.615a.453.453,0,0,1-.422.421h-5.474a.453.453,0,0,1-.421-.421v-7.65l-7.965-12.387c-.141-.21-.176-.281-.176-.386a.2.2,0,0,1,.21-.211h6.387a.8.8,0,0,1,.842.422l2.807,4.631a16.348,16.348,0,0,1,.982,1.895h.141a13.447,13.447,0,0,1,.982-1.895l2.808-4.631a.8.8,0,0,1,.842-.422h6.351a.234.234,0,0,1,.245.211c0,.141-.07.211-.175.386L200.99,87.965Z" transform="translate(-62.13 -24.975)" fill="#2aa3f4"/>
        <path id="Path_654" data-name="Path 654" d="M29.338,16.73h.009A17.94,17.94,0,0,0,43.686,7.544a8.617,8.617,0,0,0-1.29-1.7A17.8,17.8,0,0,1,29.338,16.73" transform="translate(-9.772 -1.946)" fill="#ff6700"/>
        <path id="Path_655" data-name="Path 655" d="M44.7,11.928A17.79,17.79,0,0,1,29.618,19,18.031,18.031,0,0,0,44.9,14.482c.015-.209.023-.419.023-.631a8.652,8.652,0,0,0-.215-1.923" transform="translate(-9.865 -3.973)" fill="#9622b2"/>
        <path id="Path_656" data-name="Path 656" d="M30.016,22.119a20.234,20.234,0,0,0,12.127.961c.135-.119.267-.242.395-.37a8.6,8.6,0,0,0,1.7-2.408,20.842,20.842,0,0,1-14.22,1.817" transform="translate(-9.998 -6.762)" fill="#00a14b"/>
        <path id="Path_657" data-name="Path 657" d="M34.757,0a9.877,9.877,0,1,0,9.877,9.878A9.878,9.878,0,0,0,34.757,0m5.967,15.845A8.439,8.439,0,1,1,28.79,3.91,8.439,8.439,0,0,1,40.724,15.845" transform="translate(-8.287)" fill="#2aa3f4"/>
    </g>
</svg>
