<?xml version="1.0" encoding="utf-8"?>
<svg xmlns="http://www.w3.org/2000/svg" width="38.35" height="37.872" viewBox="0 0 38.35 37.872">
    <path id="Path_680" data-name="Path 680" d="M1628.1,39.55a19.308,19.308,0,0,1,27.138,0,18.1,18.1,0,0,1,5.606,13.364,18.1,18.1,0,0,1-5.606,13.364,19.308,19.308,0,0,1-27.138,0,18.1,18.1,0,0,1-5.606-13.364A18.1,18.1,0,0,1,1628.1,39.55Zm3.042,2.939v.069q.033,2.735,2.495,2.734a5.224,5.224,0,0,0,.581-.034,2.455,2.455,0,0,0,2.427-2.359v-.341a2.724,2.724,0,0,0-.855-2.051,2.526,2.526,0,0,0-1.811-.718,2.8,2.8,0,0,0-.445.034A2.43,2.43,0,0,0,1631.146,42.489Zm5.127,4.854-.342.034q-1.026,0-4.375-.068c-.023,0-.034.034-.034.1V62.484h4.682q.069-2.871.069-7.553Zm16.269,1.162a5.056,5.056,0,0,0-4.033-1.572h-.547a5.353,5.353,0,0,0-4.238,2.461V47.309q-3.248.068-4.238.068l-.308-.034V62.45l.342-.034q1.024,0,4.375.068.067-.751.068-2.05,0-.889-.034-2.051-.034-1.5-.034-2.53,0-1.059.034-1.674a4.718,4.718,0,0,1,.41-1.812,2.279,2.279,0,0,1,2.051-1.435,3.589,3.589,0,0,1,1.47.376q1.3.581,1.3,6.152v4.99q1.2.034,2.393.034t2.393-.034c0,.091.011.137.034.137s.034-1.356.034-4.068V54.691Q1653.978,50.214,1652.542,48.505Z" transform="translate(-1622.498 -33.978)"/>
</svg>
