<?xml version="1.0" encoding="utf-8"?>
<svg class="mr-half" xmlns="http://www.w3.org/2000/svg" width="39.375" height="38.828" viewBox="0 0 39.375 38.828">
                <path id="Path_619" data-name="Path 619" d="M1677.938,39.618a19.89,19.89,0,0,1,27.822,0,19.19,19.19,0,0,1,0,27.446,19.805,19.805,0,0,1-27.822,0,19.188,19.188,0,0,1,0-27.446Zm27.856,6.084a9.428,9.428,0,0,1-2.973.82l.136-.1a5.527,5.527,0,0,0,2.154-2.8,12.877,12.877,0,0,1-2.872,1.128l-.478.137a3.4,3.4,0,0,0-.718-.615,5.2,5.2,0,0,0-2.973-1.094h-.513a5.423,5.423,0,0,0-3.931,2.016,5.023,5.023,0,0,0-1.2,3.247,6.709,6.709,0,0,0,.137,1.333,15.52,15.52,0,0,1-11.04-5.6,4.578,4.578,0,0,0-.787,2.563,5.353,5.353,0,0,0,.274,1.641,5.421,5.421,0,0,0,2.119,2.94,5.391,5.391,0,0,1-2.393-.65,5.335,5.335,0,0,0,4.273,5.3,3.034,3.034,0,0,1-1.231.239,5.234,5.234,0,0,1-1.127-.136,5.218,5.218,0,0,0,4.956,3.725c0,.046-.1.137-.308.274a10.562,10.562,0,0,1-6.255,2.016,12.286,12.286,0,0,1-1.3-.068,14.761,14.761,0,0,0,8,2.392,15.514,15.514,0,0,0,8.238-2.187,14.808,14.808,0,0,0,5.092-5.366,15.059,15.059,0,0,0,2.085-7.691v-.615a7.391,7.391,0,0,1,.718-.649A9.289,9.289,0,0,0,1705.794,45.7Z" transform="translate(-1672.161 -33.944)" fill="#fff"/>
            </svg>